<svg width="64" height="58" viewBox="0 0 64 58" fill="none" xmlns="http://www.w3.org/2000/svg">
<rect width="64" height="58" rx="12" fill="#DBEAFE"/>
<path d="M30.5948 42.384C29.2934 42.384 28.0561 42.1493 26.8828 41.68C25.7308 41.1893 24.7388 40.5067 23.9068 39.632C23.0961 38.736 22.5414 37.68 22.2428 36.464L26.0508 35.12C26.4348 36.208 27.0214 37.04 27.8108 37.616C28.6001 38.1707 29.5281 38.448 30.5948 38.448C31.4481 38.448 32.1841 38.288 32.8028 37.968C33.4428 37.648 33.9441 37.1893 34.3068 36.592C34.6694 35.9733 34.8508 35.248 34.8508 34.416C34.8508 33.584 34.6694 32.88 34.3068 32.304C33.9654 31.7067 33.4748 31.248 32.8348 30.928C32.1948 30.608 31.4374 30.448 30.5628 30.448C30.1574 30.448 29.7308 30.4907 29.2828 30.576C28.8561 30.6613 28.4721 30.7893 28.1308 30.96L27.1388 28.88L33.3148 21.84H23.5868V18.16H38.2108V21.584L32.0028 28.848L32.0668 27.216C33.4961 27.2373 34.7441 27.5467 35.8108 28.144C36.8774 28.7413 37.7094 29.5627 38.3068 30.608C38.9041 31.6533 39.2028 32.88 39.2028 34.288C39.2028 35.824 38.8294 37.2107 38.0828 38.448C37.3361 39.664 36.3121 40.624 35.0108 41.328C33.7094 42.032 32.2374 42.384 30.5948 42.384Z" fill="#0084FF"/>
</svg>
