<svg width="64" height="58" viewBox="0 0 64 58" fill="none" xmlns="http://www.w3.org/2000/svg">
<rect width="64" height="58" rx="12" fill="#DBEAFE"/>
<path d="M22.9251 42V38.704L29.3891 31.952C30.6691 30.608 31.6505 29.5413 32.3331 28.752C33.0371 27.9413 33.5278 27.248 33.8051 26.672C34.0825 26.096 34.2211 25.5093 34.2211 24.912C34.2211 23.9093 33.9011 23.12 33.2611 22.544C32.6425 21.968 31.8425 21.68 30.8611 21.68C29.8371 21.68 28.9518 21.9787 28.2051 22.576C27.4585 23.152 26.9145 24.0053 26.5731 25.136L22.7651 23.952C23.0211 22.6933 23.5438 21.6053 24.3331 20.688C25.1225 19.7493 26.0825 19.0347 27.2131 18.544C28.3651 18.032 29.5811 17.776 30.8611 17.776C32.3971 17.776 33.7411 18.0533 34.8931 18.608C36.0665 19.1627 36.9731 19.9413 37.6131 20.944C38.2745 21.9467 38.6051 23.12 38.6051 24.464C38.6051 25.3173 38.4451 26.16 38.1251 26.992C37.8051 27.824 37.3251 28.6773 36.6851 29.552C36.0451 30.4053 35.2131 31.3653 34.1891 32.432L28.5891 38.32H38.9251V42H22.9251Z" fill="#0084FF"/>
</svg>
