<svg width="29" height="30" viewBox="0 0 29 30" fill="none" xmlns="http://www.w3.org/2000/svg">
<path d="M14.2693 0.846191C18.1358 0.846191 18.6183 0.860422 20.1353 0.931576C21.6508 1.00273 22.6826 1.24038 23.5905 1.59331C24.5297 1.95477 25.321 2.44431 26.1122 3.23411C26.8358 3.9455 27.3957 4.80603 27.753 5.75581C28.1045 6.66231 28.3436 7.69546 28.4147 9.21104C28.4816 10.728 28.5001 11.2105 28.5001 15.077C28.5001 18.9435 28.4859 19.4259 28.4147 20.9429C28.3436 22.4585 28.1045 23.4902 27.753 24.3981C27.3968 25.3484 26.8367 26.2091 26.1122 26.9198C25.4006 27.6432 24.5401 28.2031 23.5905 28.5606C22.684 28.9121 21.6508 29.1512 20.1353 29.2223C18.6183 29.2892 18.1358 29.3077 14.2693 29.3077C10.4028 29.3077 9.92042 29.2935 8.40342 29.2223C6.88784 29.1512 5.85611 28.9121 4.94819 28.5606C3.99804 28.2041 3.13736 27.6441 2.4265 26.9198C1.70273 26.2085 1.14278 25.348 0.78569 24.3981C0.432767 23.4916 0.195113 22.4585 0.123959 20.9429C0.0570741 19.4259 0.0385742 18.9435 0.0385742 15.077C0.0385742 11.2105 0.0528049 10.728 0.123959 9.21104C0.195113 7.69404 0.432767 6.66373 0.78569 5.75581C1.14179 4.80545 1.70187 3.94469 2.4265 3.23411C3.13757 2.5101 3.99818 1.95011 4.94819 1.59331C5.85611 1.24038 6.88642 1.00273 8.40342 0.931576C9.92042 0.864691 10.4028 0.846191 14.2693 0.846191ZM14.2693 7.96158C12.3822 7.96158 10.5724 8.71123 9.23801 10.0456C7.90361 11.38 7.15396 13.1898 7.15396 15.077C7.15396 16.9641 7.90361 18.7739 9.23801 20.1083C10.5724 21.4427 12.3822 22.1923 14.2693 22.1923C16.1565 22.1923 17.9663 21.4427 19.3007 20.1083C20.6351 18.7739 21.3847 16.9641 21.3847 15.077C21.3847 13.1898 20.6351 11.38 19.3007 10.0456C17.9663 8.71123 16.1565 7.96158 14.2693 7.96158ZM23.5193 7.60581C23.5193 7.13403 23.3319 6.68157 22.9983 6.34797C22.6647 6.01437 22.2123 5.82696 21.7405 5.82696C21.2687 5.82696 20.8163 6.01437 20.4827 6.34797C20.1491 6.68157 19.9617 7.13403 19.9617 7.60581C19.9617 8.07759 20.1491 8.53004 20.4827 8.86364C20.8163 9.19724 21.2687 9.38465 21.7405 9.38465C22.2123 9.38465 22.6647 9.19724 22.9983 8.86364C23.3319 8.53004 23.5193 8.07759 23.5193 7.60581ZM14.2693 10.8077C15.4016 10.8077 16.4875 11.2575 17.2881 12.0582C18.0888 12.8588 18.5386 13.9447 18.5386 15.077C18.5386 16.2092 18.0888 17.2951 17.2881 18.0958C16.4875 18.8964 15.4016 19.3462 14.2693 19.3462C13.1371 19.3462 12.0512 18.8964 11.2505 18.0958C10.4499 17.2951 10.0001 16.2092 10.0001 15.077C10.0001 13.9447 10.4499 12.8588 11.2505 12.0582C12.0512 11.2575 13.1371 10.8077 14.2693 10.8077Z" fill="#262626"/>
</svg>
