<svg width="54" height="38" viewBox="0 0 54 38" fill="none" xmlns="http://www.w3.org/2000/svg">
<rect y="0.693848" width="53.0612" height="37.1429" rx="18.5714" fill="#0084FF"/>
<path d="M26.3182 10.5347C29.2896 10.5347 31.3908 12.0416 31.3908 14.7159C31.3908 16.4351 30.4357 17.6661 28.8227 18.0057V18.0693C30.6055 18.3028 31.6455 19.8098 31.6455 21.5714C31.6455 24.3942 29.417 26.071 26.2333 26.071C23.3255 26.071 21.3941 24.6702 20.8423 22.1869L24.1957 21.4016C24.408 22.484 25.0872 23.142 26.4243 23.142C27.719 23.142 28.4619 22.4204 28.4619 21.2106C28.4619 19.4702 26.7427 19.4702 25.5753 19.4702H24.7476V16.711H25.7239C27.3794 16.711 28.2072 16.2228 28.2072 15.0342C28.2072 14.0791 27.3582 13.4636 26.3394 13.4636C25.448 13.4636 24.7051 13.9518 24.4717 14.8644L20.9696 14.1428C21.5851 11.7869 23.4529 10.5347 26.3182 10.5347Z" fill="white"/>
</svg>
