<svg width="33" height="27" viewBox="0 0 33 27" fill="none" xmlns="http://www.w3.org/2000/svg">
<path d="M32.1665 3.71968C30.9895 4.24029 29.7414 4.5822 28.4634 4.73409C29.8104 3.92847 30.8186 2.66057 31.3001 1.16668C30.0359 1.91901 28.6499 2.44626 27.2054 2.73147C26.2351 1.69328 24.9489 1.00474 23.5469 0.77291C22.1449 0.541077 20.7056 0.778933 19.4528 1.4495C18.1999 2.12007 17.2036 3.18577 16.6189 4.48094C16.0342 5.77611 15.8938 7.22817 16.2195 8.61138C13.6558 8.48289 11.1479 7.81669 8.85845 6.65603C6.56901 5.49537 4.54925 3.86621 2.9303 1.8743C2.35725 2.85858 2.05611 3.97748 2.05772 5.11643C2.05772 7.35184 3.19547 9.32672 4.92522 10.483C3.90156 10.4507 2.90044 10.1743 2.0053 9.67668V9.75684C2.00561 11.2456 2.52079 12.6885 3.46348 13.8408C4.40618 14.9931 5.71838 15.7839 7.17759 16.0792C6.22733 16.3367 5.23094 16.3747 4.26384 16.1902C4.67526 17.4717 5.47714 18.5924 6.55721 19.3955C7.63728 20.1986 8.94146 20.6438 10.2871 20.6688C8.94971 21.7191 7.41837 22.4956 5.78066 22.9538C4.14295 23.4119 2.431 23.5428 0.742676 23.3389C3.68988 25.2343 7.1207 26.2405 10.6248 26.2373C22.4848 26.2373 28.9706 16.4122 28.9706 7.89143C28.9706 7.61393 28.9629 7.33334 28.9506 7.05893C30.213 6.14652 31.3025 5.01625 32.168 3.72122L32.1665 3.71968Z" fill="#262626"/>
</svg>
